<svg width="1159" height="220" viewBox="0 0 1159 220" fill="none" xmlns="http://www.w3.org/2000/svg"><g clip-path="url(#clip0_1_108)"><path d="M1159 0H0V220H1159V0Z" stroke="#94A3B8"/><mask id="mask0_1_108" style="mask-type:luminance" maskUnits="userSpaceOnUse" x="42" y="55" width="133" height="102"><path d="M174.699 55.4955H42.9259V156.577H174.699V55.4955Z" fill="white"/></mask><g mask="url(#mask0_1_108)"><path d="M66.8093 156.356V149.647C66.8093 147.081 65.2267 145.4 62.51 145.4C61.1517 145.4 59.6747 145.843 58.6592 147.302C57.8679 146.078 56.7338 145.4 55.0325 145.4C53.8984 145.4 52.7642 145.739 51.8675 146.963V145.622H49.4937V156.356H51.8675V150.428C51.8675 148.527 52.8829 147.628 54.4655 147.628C56.0481 147.628 56.8393 148.631 56.8393 150.428V156.356H59.2131V150.428C59.2131 148.527 60.3473 147.628 61.8111 147.628C63.3936 147.628 64.1849 148.631 64.1849 150.428V156.356H66.8093ZM102.021 145.622H98.1699V142.379H95.7961V145.622H93.6465V147.745H95.7961V152.669C95.7961 155.131 96.8115 156.577 99.5282 156.577C100.543 156.577 101.678 156.238 102.469 155.795L101.783 153.776C101.098 154.219 100.306 154.336 99.7393 154.336C98.6051 154.336 98.1567 153.659 98.1567 152.551V147.745H102.008V145.622H102.021ZM122.172 145.387C120.814 145.387 119.903 146.064 119.336 146.95V145.608H116.962V156.342H119.336V150.298C119.336 148.514 120.128 147.497 121.604 147.497C122.053 147.497 122.62 147.615 123.082 147.719L123.767 145.478C123.292 145.387 122.62 145.387 122.172 145.387ZM91.721 146.507C90.5869 145.726 89.0044 145.387 87.3031 145.387C84.5864 145.387 82.7798 146.729 82.7798 148.852C82.7798 150.637 84.1381 151.652 86.5119 151.978L87.6461 152.095C88.8857 152.317 89.5714 152.656 89.5714 153.216C89.5714 153.997 88.6615 154.558 87.0789 154.558C85.4965 154.558 84.2436 153.997 83.4523 153.437L82.3181 155.222C83.5578 156.121 85.2591 156.564 86.9602 156.564C90.1254 156.564 91.9452 155.105 91.9452 153.098C91.9452 151.196 90.4682 150.194 88.2131 149.855L87.0789 149.738C86.0635 149.621 85.2723 149.399 85.2723 148.735C85.2723 147.953 86.0635 147.511 87.3163 147.511C88.6747 147.511 90.033 148.071 90.7187 148.409L91.721 146.507ZM154.878 145.387C153.519 145.387 152.61 146.064 152.042 146.95V145.608H149.669V156.342H152.042V150.298C152.042 148.514 152.833 147.497 154.311 147.497C154.759 147.497 155.326 147.615 155.787 147.719L156.473 145.504C156.012 145.387 155.339 145.387 154.878 145.387ZM124.545 150.988C124.545 154.232 126.814 156.577 130.322 156.577C131.904 156.577 133.038 156.238 134.172 155.352L133.038 153.45C132.129 154.128 131.232 154.453 130.203 154.453C128.278 154.453 126.919 153.112 126.919 150.988C126.919 148.97 128.278 147.628 130.203 147.524C131.219 147.524 132.129 147.862 133.038 148.527L134.172 146.625C133.038 145.726 131.904 145.4 130.322 145.4C126.814 145.387 124.545 147.745 124.545 150.988ZM146.503 150.988V145.622H144.129V146.963C143.339 145.96 142.204 145.4 140.727 145.4C137.667 145.4 135.294 147.745 135.294 150.988C135.294 154.232 137.667 156.577 140.727 156.577C142.309 156.577 143.443 156.017 144.129 155.014V156.356H146.503V150.988ZM137.786 150.988C137.786 149.087 139.026 147.524 141.07 147.524C142.995 147.524 144.354 148.983 144.354 150.988C144.354 152.89 142.995 154.453 141.07 154.453C139.039 154.336 137.786 152.877 137.786 150.988ZM109.379 145.387C106.215 145.387 103.947 147.628 103.947 150.976C103.947 154.336 106.215 156.564 109.498 156.564C111.08 156.564 112.664 156.121 113.916 155.105L112.782 153.424C111.872 154.102 110.738 154.544 109.617 154.544C108.14 154.544 106.676 153.867 106.334 151.978H114.365C114.365 151.639 114.365 151.418 114.365 151.08C114.47 147.628 112.426 145.387 109.379 145.387ZM109.379 147.406C110.857 147.406 111.872 148.305 112.097 149.973H106.438C106.663 148.527 107.678 147.406 109.379 147.406ZM168.355 150.988V141.376H165.982V146.963C165.19 145.96 164.056 145.4 162.579 145.4C159.52 145.4 157.146 147.745 157.146 150.988C157.146 154.232 159.52 156.577 162.579 156.577C164.162 156.577 165.296 156.017 165.982 155.014V156.356H168.355V150.988ZM159.639 150.988C159.639 149.087 160.878 147.524 162.922 147.524C164.848 147.524 166.206 148.983 166.206 150.988C166.206 152.89 164.848 154.453 162.922 154.453C160.878 154.336 159.639 152.877 159.639 150.988ZM80.1686 150.988V145.622H77.7948V146.963C77.0034 145.96 75.8693 145.4 74.3923 145.4C71.3327 145.4 68.9589 147.745 68.9589 150.988C68.9589 154.232 71.3327 156.577 74.3923 156.577C75.9748 156.577 77.1089 156.017 77.7948 155.014V156.356H80.1686V150.988ZM71.3459 150.988C71.3459 149.087 72.5855 147.524 74.6296 147.524C76.5551 147.524 77.9134 148.983 77.9134 150.988C77.9134 152.89 76.5551 154.453 74.6296 154.453C72.5855 154.336 71.3459 152.877 71.3459 150.988Z" fill="black"/><path d="M126.59 64.1056H90.93V127.386H126.59V64.1056Z" fill="#FF5A00"/><path d="M93.3034 95.7456C93.3034 82.889 99.4225 71.4783 108.812 64.1056C101.902 58.7389 93.1847 55.4955 83.6763 55.4955C61.1515 55.4955 42.9259 73.4973 42.9259 95.7456C42.9259 117.993 61.1515 135.996 83.6763 135.996C93.1847 135.996 101.902 132.752 108.812 127.386C99.4094 120.117 93.3034 108.602 93.3034 95.7456Z" fill="#EB001B"/><path d="M174.699 95.7456C174.699 117.993 156.473 135.996 133.948 135.996C124.44 135.996 115.722 132.752 108.812 127.386C118.321 120 124.321 108.602 124.321 95.7456C124.321 82.889 118.202 71.4783 108.812 64.1056C115.709 58.7389 124.426 55.4955 133.935 55.4955C156.473 55.4955 174.699 73.6146 174.699 95.7456Z" fill="#F79E1B"/></g><mask id="mask1_1_108" style="mask-type:luminance" maskUnits="userSpaceOnUse" x="219" y="69" width="219" height="74"><path d="M437.245 69.3694H219.621V142.703H437.245V69.3694Z" fill="white"/></mask><g mask="url(#mask1_1_108)"><path d="M361.336 69.4823C345.898 69.4823 332.104 77.7864 332.104 93.1286C332.104 110.723 356.57 111.938 356.57 120.777C356.57 124.499 352.46 127.831 345.441 127.831C335.479 127.831 328.034 123.175 328.034 123.175L324.849 138.657C324.849 138.657 333.426 142.59 344.812 142.59C361.69 142.59 374.97 133.878 374.97 118.274C374.97 99.6818 350.403 98.5025 350.403 90.2984C350.403 87.3829 353.776 84.1885 360.775 84.1885C368.672 84.1885 375.115 87.5741 375.115 87.5741L378.233 72.6211C378.233 72.6211 371.222 69.4823 361.336 69.4823ZM220.104 70.6109L219.73 72.868C219.73 72.868 226.225 74.1015 232.074 76.5621C239.605 79.3837 240.142 81.0263 241.41 86.1281L255.232 141.426H273.76L302.303 70.6109H283.817L265.476 118.758L257.992 77.9463C257.306 73.2754 253.829 70.6109 249.574 70.6109H220.104ZM309.736 70.6109L295.235 141.426H312.862L327.312 70.6109H309.736ZM408.05 70.6109C403.799 70.6109 401.547 72.9727 399.895 77.0999L374.07 141.426H392.555L396.132 130.705H418.652L420.827 141.426H437.137L422.908 70.6109H408.05ZM410.454 89.743L415.933 116.317H401.254L410.454 89.743Z" fill="#1434CB"/></g><path d="M858.519 63.4234H482.168V150.631H858.519V63.4234Z" fill="#FC3131"/><mask id="mask2_1_108" style="mask-type:luminance" maskUnits="userSpaceOnUse" x="503" y="85" width="335" height="44"><path d="M837.555 85.2252H503.132V128.829H837.555V85.2252Z" fill="white"/></mask><g mask="url(#mask2_1_108)"><mask id="mask3_1_108" style="mask-type:luminance" maskUnits="userSpaceOnUse" x="503" y="85" width="335" height="44"><path d="M837.555 85.2252H503.132V128.829H837.555V85.2252Z" fill="white"/></mask><g mask="url(#mask3_1_108)"><path fill-rule="evenodd" clip-rule="evenodd" d="M510.638 92.3753L503.132 95.1849V128.827H510.568L510.638 116.312C512.427 118.537 514.882 120.435 518.882 120.435C525.125 120.435 530.913 115.4 530.913 106.204C530.913 96.8999 525.055 91.8645 518.882 91.8645C514.987 91.8645 512.463 93.7618 510.638 96.316V92.3753ZM516.952 98.5053C520.46 98.5053 523.406 101.534 523.406 106.094C523.406 110.802 520.46 113.794 516.952 113.794C513.444 113.794 510.533 110.765 510.533 106.204C510.533 101.534 513.444 98.5053 516.952 98.5053Z" fill="white"/><path d="M564.412 92.3768H571.918V96.8649C573.461 93.0701 575.917 92.1214 580.371 92.3403V99.0542H579.986C575.005 99.0542 571.953 103.177 571.953 109.745V119.926H564.447V92.3768H564.412Z" fill="white"/><path d="M587.281 112.081V99.0543H584.124V92.3769H587.281V88.0713L594.787 85.2252V92.3769H600.995V99.0543H594.787V110.804C594.787 112.591 595.523 113.467 597.207 113.467C598.575 113.467 599.838 113.103 600.926 112.482V118.758C599.347 119.743 597.524 120.364 594.997 120.364C590.367 120.364 587.281 118.466 587.281 112.081Z" fill="white"/><path d="M604.222 92.3753H611.728V96.2795C613.447 93.9807 615.727 91.8645 619.515 91.8645C622.988 91.8645 625.584 93.47 626.952 96.243C629.266 93.4334 632.037 91.8645 635.65 91.8645C641.228 91.8645 644.595 95.3674 644.595 101.972V119.887H637.09V104.526C637.09 100.84 635.51 98.9431 632.704 98.9431C629.898 98.9431 628.179 100.84 628.179 104.526V119.887H620.673V104.526C620.673 100.84 619.095 98.9431 616.289 98.9431C613.482 98.9431 611.763 100.84 611.763 104.526V119.887H604.256V92.3753H604.222Z" fill="white"/><path d="M677.356 92.3788H684.863V96.2831C686.582 93.9843 688.827 91.8679 692.615 91.8679C698.298 91.8679 701.594 95.7722 701.594 102.085V119.891H694.088V104.53C694.088 100.844 692.404 98.9467 689.563 98.9467C686.688 98.9467 684.863 100.844 684.863 104.53V119.891H677.356V92.3788Z" fill="white"/><path fill-rule="evenodd" clip-rule="evenodd" d="M717.592 91.8296C709.874 91.8296 704.507 98.3245 704.507 106.17C704.507 114.708 710.4 120.509 718.292 120.473C721.835 120.473 724.711 119.414 726.957 117.554C726.326 115.657 724.816 111.387 724.816 111.387C722.747 113.357 720.924 114.197 718.397 114.197C715.065 114.197 712.681 112.336 711.943 108.797H730.359C730.429 108.103 730.464 107.374 730.464 106.754C730.464 98.9813 726.43 91.8296 717.592 91.8296ZM717.592 98.1421C720.748 98.1421 722.713 100.478 723.168 103.981H711.874C712.471 100.441 714.469 98.1421 717.592 98.1421Z" fill="white"/><path d="M742.004 106.169C742.004 98.3238 747.792 91.8289 755.859 91.8289C759.542 91.8289 762.173 92.8871 764.313 94.6385C763.751 96.171 761.998 101.279 761.998 101.279C760.384 99.6739 758.806 98.5428 755.825 98.5428C752.071 98.5428 749.405 101.973 749.405 106.132C749.405 110.329 752.035 113.722 756.105 113.722C758.63 113.722 760.349 112.59 762.173 110.803C762.173 110.803 764.102 116.386 764.489 117.48C762.348 119.304 759.683 120.472 755.754 120.472C747.826 120.508 742.004 114.124 742.004 106.169Z" fill="#94A3B8"/><path d="M797.216 92.3788H804.723V96.2831C806.441 93.9843 808.721 91.8679 812.51 91.8679C815.983 91.8679 818.578 93.4734 819.946 96.2465C822.261 93.437 825.032 91.8679 828.645 91.8679C834.222 91.8679 837.591 95.3709 837.591 101.975V119.891H830.084V104.53C830.084 100.844 828.505 98.9467 825.698 98.9467C822.893 98.9467 821.174 100.844 821.174 104.53V119.891H813.668V104.53C813.668 100.844 812.09 98.9467 809.283 98.9467C806.477 98.9467 804.758 100.844 804.758 104.53V119.891H797.251V92.3788H797.216Z" fill="#94A3B8"/><path d="M740.181 116.131C740.181 118.539 738.427 120.473 736.217 120.473C734.007 120.473 732.253 118.539 732.253 116.131C732.253 113.722 734.007 111.789 736.217 111.789C738.427 111.789 740.181 113.722 740.181 116.131Z" fill="#94A3B8"/><path fill-rule="evenodd" clip-rule="evenodd" d="M533.436 106.095C533.436 114.086 539.681 120.581 547.362 120.581C555.079 120.581 561.287 114.086 561.287 106.095C561.287 98.1039 555.044 91.609 547.362 91.609C539.681 91.609 533.436 98.1039 533.436 106.095ZM540.733 106.095C540.733 102.3 543.715 99.1982 547.362 99.1982C551.045 99.1982 553.992 102.3 553.992 106.095C553.992 109.89 551.01 112.991 547.362 112.991C543.715 112.991 540.733 109.89 540.733 106.095Z" fill="white"/><path fill-rule="evenodd" clip-rule="evenodd" d="M647.121 106.095C647.121 114.086 653.366 120.581 661.047 120.581C668.729 120.581 674.972 114.086 674.972 106.095C674.972 98.1039 668.729 91.609 661.047 91.609C653.366 91.609 647.121 98.1039 647.121 106.095ZM654.417 106.095C654.417 102.3 657.399 99.1982 661.047 99.1982C664.695 99.1982 667.676 102.3 667.676 106.095C667.676 109.89 664.695 112.991 661.047 112.991C657.399 112.991 654.417 109.89 654.417 106.095Z" fill="white"/><path fill-rule="evenodd" clip-rule="evenodd" d="M765.924 106.098C765.924 114.089 772.169 120.584 779.85 120.584C787.532 120.584 793.775 114.089 793.775 106.098C793.775 98.1074 787.532 91.6124 779.85 91.6124C772.169 91.6124 765.924 98.1074 765.924 106.098ZM773.221 106.098C773.221 102.304 776.203 99.2021 779.85 99.2021C783.498 99.2021 786.479 102.304 786.479 106.098C786.479 109.893 783.498 112.995 779.85 112.995C776.203 112.995 773.221 109.893 773.221 106.098Z" fill="#94A3B8"/></g></g><path d="M1050.16 115.82L1052.39 116.491C1052.24 117.125 1052.01 117.647 1051.69 118.058C1051.35 118.469 1050.98 118.804 1050.49 118.991C1050.01 119.214 1049.41 119.326 1048.66 119.326C1047.77 119.326 1047.06 119.214 1046.46 118.954C1045.91 118.692 1045.43 118.245 1045.01 117.573C1044.6 116.939 1044.38 116.081 1044.38 115.074C1044.38 113.731 1044.75 112.687 1045.46 111.94C1046.16 111.194 1047.21 110.858 1048.51 110.858C1049.56 110.858 1050.34 111.082 1050.94 111.492C1051.54 111.903 1051.98 112.537 1052.24 113.433L1050.01 113.917C1049.93 113.657 1049.86 113.469 1049.75 113.357C1049.6 113.171 1049.45 113.023 1049.22 112.911C1049 112.799 1048.78 112.761 1048.55 112.761C1047.99 112.761 1047.54 112.985 1047.24 113.469C1047.02 113.805 1046.91 114.365 1046.91 115.074C1046.91 115.969 1047.06 116.603 1047.32 116.939C1047.58 117.275 1047.99 117.461 1048.48 117.461C1048.96 117.461 1049.34 117.313 1049.56 117.051C1049.86 116.715 1050.04 116.342 1050.16 115.82Z" fill="#225E63"/><path d="M1053.28 115.074C1053.28 113.731 1053.65 112.687 1054.4 111.94C1055.15 111.194 1056.19 110.822 1057.54 110.822C1058.91 110.822 1059.95 111.194 1060.7 111.904C1061.45 112.649 1061.82 113.657 1061.82 115C1061.82 115.97 1061.67 116.753 1061.33 117.349C1061 117.947 1060.55 118.431 1059.92 118.767C1059.32 119.103 1058.53 119.29 1057.64 119.29C1056.71 119.29 1055.97 119.14 1055.33 118.842C1054.74 118.543 1054.25 118.095 1053.84 117.425C1053.43 116.753 1053.28 116.044 1053.28 115.074ZM1055.82 115.074C1055.82 115.894 1055.97 116.492 1056.27 116.865C1056.57 117.237 1056.98 117.425 1057.54 117.425C1058.09 117.425 1058.5 117.237 1058.8 116.902C1059.09 116.529 1059.24 115.894 1059.24 115C1059.24 114.216 1059.09 113.657 1058.76 113.321C1058.46 112.948 1058.01 112.799 1057.5 112.799C1056.98 112.799 1056.57 112.985 1056.27 113.358C1055.97 113.657 1055.82 114.253 1055.82 115.074Z" fill="#225E63"/><path d="M1063.13 110.97H1066.44L1067.71 115.969L1068.98 110.97H1072.3V119.178H1070.2V112.911L1068.61 119.178H1066.74L1065.14 112.911V119.178H1063.06V110.97H1063.13Z" fill="#225E63"/><path d="M1073.94 110.97H1078.14C1079.08 110.97 1079.75 111.194 1080.2 111.642C1080.65 112.09 1080.86 112.687 1080.86 113.507C1080.86 114.328 1080.61 115 1080.12 115.446C1079.64 115.932 1078.85 116.156 1077.85 116.156H1076.46V119.214H1073.94V110.97ZM1076.46 114.477H1077.1C1077.58 114.477 1077.92 114.402 1078.14 114.216C1078.33 114.029 1078.44 113.843 1078.44 113.581C1078.44 113.321 1078.37 113.097 1078.18 112.911C1077.99 112.723 1077.7 112.649 1077.21 112.649H1076.5V114.477H1076.46Z" fill="#225E63"/><path d="M1082.2 110.97H1084.74V117.163H1088.69V119.178H1082.2V110.97Z" fill="#225E63"/><path d="M1089.96 110.97H1092.49V119.178H1089.96V110.97Z" fill="#225E63"/><path d="M1099.35 117.796H1096.48L1096.07 119.14H1093.5L1096.6 110.933H1099.35L1102.45 119.14H1099.8L1099.35 117.796ZM1098.83 116.043L1097.94 113.096L1097.04 116.043H1098.83Z" fill="#225E63"/><path d="M1103.23 110.97H1105.57L1108.67 115.522V110.97H1111.05V119.178H1108.67L1105.61 114.664V119.178H1103.23V110.97Z" fill="#225E63"/><path d="M1112.17 110.97H1119.89V112.985H1117.32V119.178H1114.79V112.985H1112.21V110.97H1112.17Z" fill="#225E63"/><path d="M1019.67 123.467L1027.01 121.154L1024.62 115.857C1022.87 118.058 1021.12 120.893 1019.67 123.467ZM1017.16 99.2567L1002.78 67.1751L897.451 73.1438L926.635 152.825L982.804 135.106C979.226 129.958 977.921 123.84 982.058 120.855C986.68 117.498 993.65 121.378 998.086 126.862C1002.37 119.699 1014.41 103.024 1017.16 99.2567Z" fill="#225E63"/><path d="M999.495 90.3597C1003.89 90.3597 1007.47 87.0024 1007.47 82.8243C1007.47 78.6463 1003.89 75.2889 999.495 75.2889C995.095 75.2889 991.517 78.6463 991.517 82.8243C991.517 86.9651 995.095 90.3597 999.495 90.3597ZM992.971 93.6052H1006.01V127.739H992.971V93.6052Z" fill="#FEFEFE"/><path d="M986.522 103.566C986.633 103.602 986.707 103.565 986.707 103.454V94.7986C986.707 94.6867 986.633 94.5748 986.522 94.5002C986.522 94.5002 984.807 93.3811 979.589 93.0826C979.328 92.9335 974.743 92.8961 973.513 93.0826C954.505 94.6121 953.796 108.378 953.796 108.974V112.332C953.796 112.742 953.796 126.805 973.513 128.036C975.452 128.186 979.216 128.036 979.589 128.036C984.136 128.036 987.266 126.657 987.266 126.657C987.378 126.619 987.453 126.507 987.453 126.395V118.301C987.453 118.189 987.378 118.151 987.304 118.225C987.304 118.225 985.888 119.345 979.7 119.979C977.948 120.166 977.092 120.09 976.458 119.979C967.661 118.487 967.252 112.07 967.252 112.07C967.252 111.958 967.214 111.772 967.214 111.698V109.235C967.214 109.123 967.214 108.937 967.252 108.862C967.252 108.862 967.848 101.961 976.458 101.215H979.7C983.465 101.699 986.522 103.566 986.522 103.566Z" fill="#FEFEFE"/><path d="M917.569 127.627C917.569 127.738 917.643 127.813 917.755 127.813H930.465C930.577 127.813 930.651 127.738 930.651 127.627V117.703C930.651 117.592 930.726 117.517 930.838 117.517C930.838 117.517 951.151 118.971 951.151 105.356C951.151 94.575 938.404 93.4185 934.23 93.6051C934.155 93.6051 917.755 93.6051 917.755 93.6051C917.643 93.6051 917.569 93.6797 917.569 93.7917V127.627ZM930.427 109.945V101.029H933.559C933.559 101.029 938.068 101.215 938.442 104.312C938.515 104.535 938.515 106.065 938.442 106.139C937.845 109.758 933.931 109.945 933.931 109.945H930.427Z" fill="#FEFEFE"/><path d="M999.875 144.208C1000.91 144.208 1001.74 144.208 1003.08 143.611C1007.7 141.186 1023.31 103.024 1039.8 91.2735C1039.91 91.1989 1040.02 91.087 1040.09 90.9751C1040.21 90.8259 1040.21 90.6767 1040.21 90.6767C1040.21 90.6767 1040.2 89.8933 1037.78 89.8933C1023.13 89.4829 1007.89 120.259 999.875 132.42C999.765 132.569 999.236 132.42 999.236 132.42C999.236 132.42 993.873 126.078 989.214 123.654C989.102 123.616 988.58 123.43 988.021 123.467C987.649 123.467 985.486 123.914 984.48 124.959C983.287 126.227 983.325 126.936 983.325 128.465C983.325 128.577 983.399 129.099 983.549 129.361C984.704 131.376 989.885 138.538 994.17 142.492C994.804 142.977 995.811 144.208 999.875 144.208Z" fill="#2BBC5D"/><path d="M1044.12 79.7477H1056.3C1058.72 79.7477 1060.66 80.0834 1062.12 80.7176C1063.6 81.3891 1064.83 82.3216 1065.77 83.5154C1066.74 84.7464 1067.45 86.164 1067.86 87.768C1068.31 89.3721 1068.53 91.0881 1068.53 92.916C1068.53 95.751 1068.19 97.952 1067.56 99.5193C1066.92 101.086 1066.03 102.391 1064.87 103.473C1063.71 104.518 1062.49 105.226 1061.19 105.599C1059.39 106.085 1057.75 106.309 1056.3 106.309H1044.12V79.7477ZM1052.31 85.7536V100.265H1054.33C1056.04 100.265 1057.27 100.078 1057.97 99.7056C1058.68 99.332 1059.28 98.6608 1059.69 97.7282C1060.1 96.7956 1060.33 95.2288 1060.33 93.1025C1060.33 90.2674 1059.88 88.3649 1058.94 87.3204C1058.01 86.2759 1056.53 85.7536 1054.36 85.7536H1052.31Z" fill="#225E63"/><path d="M1070.8 97.541L1078.63 97.056C1078.82 98.3243 1079.15 99.2943 1079.68 99.9652C1080.53 101.047 1081.72 101.57 1083.29 101.57C1084.44 101.57 1085.38 101.309 1086.01 100.749C1086.64 100.189 1086.97 99.555 1086.97 98.8466C1086.97 98.1751 1086.67 97.541 1086.09 96.9813C1085.49 96.4218 1084.07 95.9368 1081.87 95.452C1078.26 94.6312 1075.72 93.5494 1074.16 92.2065C1072.59 90.8635 1071.84 89.1476 1071.84 87.0586C1071.84 85.6783 1072.26 84.4099 1073.04 83.1789C1073.82 81.9479 1075.01 81.0153 1076.61 80.3065C1078.22 79.5977 1080.38 79.2619 1083.14 79.2619C1086.54 79.2619 1089.14 79.8962 1090.89 81.1644C1092.68 82.4328 1093.72 84.4472 1094.06 87.2077L1086.31 87.6553C1086.09 86.4617 1085.68 85.6037 1085 85.0441C1084.33 84.4846 1083.44 84.2234 1082.28 84.2234C1081.31 84.2234 1080.61 84.4099 1080.12 84.8203C1079.64 85.2306 1079.41 85.7156 1079.41 86.3124C1079.41 86.7228 1079.6 87.1331 1080.01 87.4688C1080.38 87.8046 1081.31 88.1403 1082.76 88.4387C1086.35 89.2221 1088.91 90.0056 1090.48 90.7889C1092.05 91.5723 1093.16 92.5795 1093.87 93.7359C1094.58 94.8923 1094.92 96.2353 1094.92 97.6901C1094.92 99.4063 1094.43 100.973 1093.5 102.39C1092.56 103.845 1091.23 104.927 1089.55 105.673C1087.87 106.42 1085.71 106.792 1083.14 106.792C1078.63 106.792 1075.49 105.934 1073.75 104.181C1072.03 102.428 1071.06 100.227 1070.8 97.541Z" fill="#225E63"/><path d="M1097 97.5404L1104.82 97.0554C1105.01 98.3238 1105.34 99.2933 1105.86 99.9652C1106.72 101.047 1107.92 101.57 1109.49 101.57C1110.63 101.57 1111.57 101.308 1112.2 100.748C1112.84 100.189 1113.17 99.555 1113.17 98.846C1113.17 98.1745 1112.87 97.5404 1112.28 96.9808C1111.68 96.4212 1110.26 95.9363 1108.07 95.4513C1104.45 94.6306 1101.92 93.5488 1100.35 92.2059C1098.82 90.8629 1098.04 89.147 1098.04 87.0579C1098.04 85.6777 1098.44 84.4094 1099.23 83.1783C1100.01 81.9472 1101.21 81.0147 1102.81 80.3059C1104.41 79.5971 1106.57 79.2614 1109.34 79.2614C1112.72 79.2614 1115.34 79.8956 1117.08 81.1639C1118.88 82.4322 1119.92 84.4466 1120.26 87.2071L1112.5 87.6547C1112.28 86.4611 1111.87 85.6031 1111.19 85.0435C1110.52 84.484 1109.64 84.2228 1108.48 84.2228C1107.51 84.2228 1106.8 84.4093 1106.31 84.8197C1105.83 85.23 1105.6 85.715 1105.6 86.3119C1105.6 86.7222 1105.79 87.1325 1106.2 87.4682C1106.57 87.804 1107.51 88.1397 1108.96 88.4381C1112.54 89.2215 1115.11 90.005 1116.67 90.7884C1118.24 91.5717 1119.36 92.5789 1120.07 93.7354C1120.78 94.8918 1121.12 96.2346 1121.12 97.6895C1121.12 99.4053 1120.63 100.972 1119.7 102.39C1118.76 103.845 1117.42 104.926 1115.74 105.672C1114.07 106.419 1111.9 106.792 1109.34 106.792C1104.82 106.792 1101.69 105.934 1099.94 104.181C1098.18 102.427 1097.22 100.226 1097 97.5404Z" fill="#225E63"/></g><defs><clipPath id="clip0_1_108"><rect width="1159" height="220" fill="white"/></clipPath></defs></svg>
