<svg width="313" height="60" viewBox="0 0 313 60" fill="none" xmlns="http://www.w3.org/2000/svg"><g clip-path="url(#clip0_1_2)"><path d="M313 0H0V60H313V0Z" stroke="#94A3B8"/><mask id="mask0_1_2" style="mask-type:luminance" maskUnits="userSpaceOnUse" x="9" y="16" width="38" height="28"><path d="M46.1054 16.4516H9.93651V43.5484H46.1054V16.4516Z" fill="white"/></mask><g mask="url(#mask0_1_2)"><path d="M16.4922 43.4891V41.6907C16.4922 41.0028 16.0578 40.5524 15.3122 40.5524C14.9393 40.5524 14.5339 40.6711 14.2552 41.0622C14.038 40.734 13.7267 40.5524 13.2598 40.5524C12.9485 40.5524 12.6372 40.6431 12.391 40.9714V40.6118H11.7395V43.4891H12.391V41.9002C12.391 41.3904 12.6697 41.1495 13.1041 41.1495C13.5385 41.1495 13.7557 41.4184 13.7557 41.9002V43.4891H14.4072V41.9002C14.4072 41.3904 14.7186 41.1495 15.1203 41.1495C15.5547 41.1495 15.7719 41.4184 15.7719 41.9002V43.4891H16.4922ZM26.1571 40.6118H25.1001V39.7423H24.4485V40.6118H23.8585V41.1809H24.4485V42.5008C24.4485 43.1608 24.7272 43.5484 25.4729 43.5484C25.7517 43.5484 26.063 43.4576 26.2801 43.3389L26.0919 42.7976C25.9037 42.9164 25.6865 42.9478 25.5309 42.9478C25.2196 42.9478 25.0964 42.7663 25.0964 42.4695V41.1809H26.1534V40.6118H26.1571ZM31.6881 40.5489C31.3152 40.5489 31.0655 40.7305 30.9098 40.9679V40.6083H30.2583V43.4856H30.9098V41.8653C30.9098 41.3869 31.127 41.1146 31.5324 41.1146C31.6555 41.1146 31.8111 41.146 31.9378 41.1739L32.126 40.5734C31.9958 40.5489 31.8111 40.5489 31.6881 40.5489ZM23.33 40.8492C23.0187 40.6396 22.5843 40.5489 22.1174 40.5489C21.3716 40.5489 20.8758 40.9086 20.8758 41.4777C20.8758 41.9561 21.2486 42.2285 21.9002 42.3158L22.2115 42.3472C22.5517 42.4065 22.74 42.4973 22.74 42.6475C22.74 42.857 22.4902 43.0071 22.0559 43.0071C21.6214 43.0071 21.2775 42.857 21.0604 42.7068L20.7491 43.1853C21.0893 43.4262 21.5563 43.5449 22.0233 43.5449C22.892 43.5449 23.3915 43.1538 23.3915 42.6161C23.3915 42.1063 22.9861 41.8374 22.3672 41.7466L22.0559 41.7152C21.7771 41.6837 21.5599 41.6244 21.5599 41.4463C21.5599 41.2367 21.7771 41.1181 22.121 41.1181C22.4939 41.1181 22.8667 41.2682 23.0549 41.359L23.33 40.8492ZM40.6652 40.5489C40.2923 40.5489 40.0425 40.7305 39.8869 40.9679V40.6083H39.2353V43.4856H39.8869V41.8653C39.8869 41.3869 40.104 41.1146 40.5095 41.1146C40.6326 41.1146 40.7882 41.146 40.9149 41.1739L41.1032 40.5803C40.9765 40.5489 40.7919 40.5489 40.6652 40.5489ZM32.3397 42.0504C32.3397 42.9198 32.9623 43.5484 33.9251 43.5484C34.3595 43.5484 34.6708 43.4576 34.9821 43.2201L34.6708 42.7103C34.4211 42.892 34.1748 42.9793 33.8925 42.9793C33.364 42.9793 32.9912 42.6195 32.9912 42.0504C32.9912 41.5092 33.364 41.1494 33.8925 41.1216C34.1713 41.1216 34.4211 41.2124 34.6708 41.3904L34.9821 40.8806C34.6708 40.6396 34.3595 40.5524 33.9251 40.5524C32.9623 40.5489 32.3397 41.1809 32.3397 42.0504ZM38.3665 42.0504V40.6118H37.715V40.9714C37.4978 40.7025 37.1865 40.5524 36.7811 40.5524C35.9413 40.5524 35.2898 41.1809 35.2898 42.0504C35.2898 42.9198 35.9413 43.5484 36.7811 43.5484C37.2155 43.5484 37.5268 43.3983 37.715 43.1294V43.4891H38.3665V42.0504ZM35.9739 42.0504C35.9739 41.5406 36.3142 41.1216 36.8753 41.1216C37.4037 41.1216 37.7765 41.5126 37.7765 42.0504C37.7765 42.5602 37.4037 42.9793 36.8753 42.9793C36.3177 42.9478 35.9739 42.5567 35.9739 42.0504ZM28.1769 40.5489C27.3081 40.5489 26.6855 41.1495 26.6855 42.0469C26.6855 42.9478 27.3081 43.5449 28.2094 43.5449C28.6439 43.5449 29.0782 43.4262 29.4221 43.1538L29.1108 42.7034C28.861 42.8849 28.5497 43.0036 28.242 43.0036C27.8366 43.0036 27.4348 42.8221 27.3407 42.3158H29.5452C29.5452 42.225 29.5452 42.1656 29.5452 42.0748C29.5741 41.1495 29.013 40.5489 28.1769 40.5489ZM28.1769 41.0901C28.5823 41.0901 28.861 41.3311 28.9226 41.778H27.3697C27.4312 41.3904 27.7099 41.0901 28.1769 41.0901ZM44.3645 42.0504V39.4734H43.713V40.9714C43.4958 40.7025 43.1846 40.5524 42.7791 40.5524C41.9393 40.5524 41.2878 41.1809 41.2878 42.0504C41.2878 42.9198 41.9393 43.5484 42.7791 43.5484C43.2135 43.5484 43.5248 43.3983 43.713 43.1294V43.4891H44.3645V42.0504ZM41.9719 42.0504C41.9719 41.5406 42.3121 41.1216 42.8733 41.1216C43.4017 41.1216 43.7745 41.5126 43.7745 42.0504C43.7745 42.5602 43.4017 42.9793 42.8733 42.9793C42.3121 42.9478 41.9719 42.5567 41.9719 42.0504ZM20.1591 42.0504V40.6118H19.5075V40.9714C19.2903 40.7025 18.979 40.5524 18.5736 40.5524C17.7338 40.5524 17.0822 41.1809 17.0822 42.0504C17.0822 42.9198 17.7338 43.5484 18.5736 43.5484C19.0079 43.5484 19.3193 43.3983 19.5075 43.1294V43.4891H20.1591V42.0504ZM17.7375 42.0504C17.7375 41.5406 18.0777 41.1216 18.6387 41.1216C19.1672 41.1216 19.54 41.5126 19.54 42.0504C19.54 42.5602 19.1672 42.9793 18.6387 42.9793C18.0777 42.9478 17.7375 42.5567 17.7375 42.0504Z" fill="black"/><path d="M32.9 18.7597H23.1121V35.7231H32.9V18.7597Z" fill="#FF5A00"/><path d="M23.7641 27.2415C23.7641 23.7949 25.4436 20.7361 28.021 18.7598C26.1242 17.3211 23.7315 16.4516 21.1216 16.4516C14.939 16.4516 9.93651 21.2774 9.93651 27.2415C9.93651 33.2056 14.939 38.0313 21.1216 38.0313C23.7315 38.0313 26.1242 37.1618 28.021 35.7231C25.44 33.7747 23.7641 30.6879 23.7641 27.2415Z" fill="#EB001B"/><path d="M46.1056 27.2415C46.1056 33.2056 41.1031 38.0313 34.9205 38.0313C32.3105 38.0313 29.9179 37.1618 28.0211 35.7231C30.631 33.7432 32.278 30.6879 32.278 27.2415C32.278 23.7949 30.5985 20.7361 28.0211 18.7598C29.9143 17.3211 32.307 16.4516 34.9168 16.4516C41.1031 16.4516 46.1056 21.3088 46.1056 27.2415Z" fill="#F79E1B"/></g><mask id="mask1_1_2" style="mask-type:luminance" maskUnits="userSpaceOnUse" x="58" y="20" width="60" height="20"><path d="M117.649 20.3226H58.0296V39.6774H117.649V20.3226Z" fill="white"/></mask><g mask="url(#mask1_1_2)"><path d="M96.8531 20.3524C92.6241 20.3524 88.845 22.544 88.845 26.5933C88.845 31.2371 95.5475 31.5578 95.5475 33.8906C95.5475 34.873 94.4217 35.7523 92.4987 35.7523C89.7698 35.7523 87.7302 34.5236 87.7302 34.5236L86.8575 38.6097C86.8575 38.6097 89.2071 39.6476 92.3265 39.6476C96.9501 39.6476 100.588 37.3483 100.588 33.2298C100.588 28.3228 93.8579 28.0117 93.8579 25.8464C93.8579 25.0768 94.7822 24.2337 96.6995 24.2337C98.8629 24.2337 100.628 25.1273 100.628 25.1273L101.482 21.1808C101.482 21.1808 99.561 20.3524 96.8531 20.3524ZM58.1622 20.6502L58.0599 21.2459C58.0599 21.2459 59.839 21.5715 61.4414 22.2209C63.5046 22.9656 63.6516 23.3991 63.9991 24.7456L67.7856 39.3404H72.8613L80.6809 20.6502H75.6168L70.5922 33.3578L68.5419 22.5862C68.3538 21.3534 67.4014 20.6502 66.2356 20.6502H58.1622ZM82.7172 20.6502L78.7446 39.3404H83.5737L87.5324 20.6502H82.7172ZM109.651 20.6502C108.486 20.6502 107.869 21.2736 107.417 22.3629L100.342 39.3404H105.406L106.385 36.5109H112.555L113.151 39.3404H117.62L113.722 20.6502H109.651ZM110.309 25.6997L111.811 32.7133H107.788L110.309 25.6997Z" fill="#1434CB"/></g><path d="M231.918 18.3871H129.572V41.6129H231.918V18.3871Z" fill="#FC3131"/><mask id="mask2_1_2" style="mask-type:luminance" maskUnits="userSpaceOnUse" x="134" y="24" width="94" height="12"><path d="M227.943 24.1935H134.54V35.8064H227.943V24.1935Z" fill="white"/></mask><g mask="url(#mask2_1_2)"><mask id="mask3_1_2" style="mask-type:luminance" maskUnits="userSpaceOnUse" x="134" y="24" width="94" height="12"><path d="M227.943 24.1935H134.54V35.8064H227.943V24.1935Z" fill="white"/></mask><g mask="url(#mask3_1_2)"><path fill-rule="evenodd" clip-rule="evenodd" d="M136.637 26.0978L134.54 26.8461V35.806H136.618L136.637 32.4728C137.137 33.0655 137.822 33.5709 138.939 33.5709C140.683 33.5709 142.3 32.2298 142.3 29.7809C142.3 27.3028 140.664 25.9617 138.939 25.9617C137.852 25.9617 137.147 26.4671 136.637 27.1474V26.0978ZM138.401 27.7304C139.38 27.7304 140.203 28.537 140.203 29.7518C140.203 31.0054 139.38 31.8022 138.401 31.8022C137.421 31.8022 136.608 30.9956 136.608 29.7809C136.608 28.537 137.421 27.7304 138.401 27.7304Z" fill="white"/><path d="M151.656 26.0981H153.753V27.2935C154.184 26.2828 154.869 26.0301 156.113 26.0885V27.8766H156.006C154.615 27.8766 153.762 28.9747 153.762 30.7239V33.4352H151.666V26.0981H151.656Z" fill="white"/><path d="M158.043 31.3459V27.8767H157.162V26.0983H158.043V24.9516L160.14 24.1935V26.0983H161.874V27.8767H160.14V31.0058C160.14 31.482 160.345 31.7152 160.816 31.7152C161.198 31.7152 161.551 31.6181 161.855 31.4529V33.1243C161.414 33.3867 160.904 33.5519 160.198 33.5519C158.906 33.5519 158.043 33.0465 158.043 31.3459Z" fill="white"/><path d="M162.774 26.0978H164.871V27.1376C165.351 26.5254 165.987 25.9617 167.046 25.9617C168.015 25.9617 168.741 26.3893 169.122 27.1279C169.769 26.3796 170.543 25.9617 171.552 25.9617C173.11 25.9617 174.051 26.8947 174.051 28.6536V33.4251H171.954V29.3339C171.954 28.3523 171.513 27.8471 170.729 27.8471C169.945 27.8471 169.465 28.3523 169.465 29.3339V33.4251H167.369V29.3339C167.369 28.3523 166.928 27.8471 166.144 27.8471C165.36 27.8471 164.88 28.3523 164.88 29.3339V33.4251H162.784V26.0978H162.774Z" fill="white"/><path d="M183.201 26.0987H185.298V27.1386C185.778 26.5264 186.405 25.9627 187.463 25.9627C189.05 25.9627 189.971 27.0025 189.971 28.6837V33.426H187.875V29.3348C187.875 28.3533 187.405 27.8479 186.611 27.8479C185.808 27.8479 185.298 28.3533 185.298 29.3348V33.426H183.201V26.0987Z" fill="white"/><path fill-rule="evenodd" clip-rule="evenodd" d="M194.439 25.9525C192.283 25.9525 190.784 27.6824 190.784 29.7717C190.784 32.0457 192.429 33.5908 194.634 33.5811C195.624 33.5811 196.427 33.2993 197.054 32.8036C196.878 32.2984 196.457 31.1614 196.457 31.1614C195.878 31.6861 195.369 31.9096 194.663 31.9096C193.733 31.9096 193.066 31.414 192.861 30.4714H198.004C198.024 30.2867 198.034 30.0924 198.034 29.9271C198.034 27.8572 196.907 25.9525 194.439 25.9525ZM194.439 27.6338C195.32 27.6338 195.868 28.2557 195.996 29.1886H192.841C193.008 28.246 193.566 27.6338 194.439 27.6338Z" fill="white"/><path d="M201.257 29.7714C201.257 27.6821 202.874 25.9523 205.126 25.9523C206.156 25.9523 206.89 26.2341 207.488 26.7006C207.331 27.1088 206.841 28.4692 206.841 28.4692C206.39 28.0417 205.95 27.7404 205.117 27.7404C204.069 27.7404 203.324 28.6539 203.324 29.7617C203.324 30.8793 204.059 31.7831 205.196 31.7831C205.9 31.7831 206.38 31.4818 206.89 31.0056C206.89 31.0056 207.429 32.4924 207.537 32.784C206.94 33.2699 206.194 33.5808 205.097 33.5808C202.884 33.5906 201.257 31.8899 201.257 29.7714Z" fill="#94A3B8"/><path d="M216.677 26.0987H218.775V27.1386C219.255 26.5264 219.891 25.9627 220.949 25.9627C221.92 25.9627 222.644 26.3903 223.026 27.1288C223.673 26.3805 224.447 25.9627 225.456 25.9627C227.013 25.9627 227.954 26.8957 227.954 28.6545V33.426H225.858V29.3348C225.858 28.3533 225.417 27.8479 224.633 27.8479C223.85 27.8479 223.37 28.3533 223.37 29.3348V33.426H221.273V29.3348C221.273 28.3533 220.832 27.8479 220.048 27.8479C219.265 27.8479 218.784 28.3533 218.784 29.3348V33.426H216.687V26.0987H216.677Z" fill="#94A3B8"/><path d="M200.747 32.4246C200.747 33.066 200.257 33.581 199.64 33.581C199.023 33.581 198.533 33.066 198.533 32.4246C198.533 31.7833 199.023 31.2681 199.64 31.2681C200.257 31.2681 200.747 31.7833 200.747 32.4246Z" fill="#94A3B8"/><path fill-rule="evenodd" clip-rule="evenodd" d="M143.005 29.7517C143.005 31.8799 144.749 33.6098 146.894 33.6098C149.05 33.6098 150.784 31.8799 150.784 29.7517C150.784 27.6235 149.04 25.8937 146.894 25.8937C144.749 25.8937 143.005 27.6235 143.005 29.7517ZM145.043 29.7517C145.043 28.7411 145.876 27.915 146.894 27.915C147.923 27.915 148.747 28.7411 148.747 29.7517C148.747 30.7624 147.914 31.5884 146.894 31.5884C145.876 31.5884 145.043 30.7624 145.043 29.7517Z" fill="white"/><path fill-rule="evenodd" clip-rule="evenodd" d="M174.756 29.7517C174.756 31.8799 176.5 33.6098 178.645 33.6098C180.791 33.6098 182.535 31.8799 182.535 29.7517C182.535 27.6235 180.791 25.8937 178.645 25.8937C176.5 25.8937 174.756 27.6235 174.756 29.7517ZM176.794 29.7517C176.794 28.7411 177.627 27.915 178.645 27.915C179.665 27.915 180.498 28.7411 180.498 29.7517C180.498 30.7624 179.665 31.5884 178.645 31.5884C177.627 31.5884 176.794 30.7624 176.794 29.7517Z" fill="white"/><path fill-rule="evenodd" clip-rule="evenodd" d="M207.938 29.7526C207.938 31.8809 209.682 33.6106 211.827 33.6106C213.973 33.6106 215.717 31.8809 215.717 29.7526C215.717 27.6245 213.973 25.8946 211.827 25.8946C209.682 25.8946 207.938 27.6245 207.938 29.7526ZM209.975 29.7526C209.975 28.742 210.809 27.916 211.827 27.916C212.846 27.916 213.679 28.742 213.679 29.7526C213.679 30.7633 212.846 31.5893 211.827 31.5893C210.809 31.5893 209.975 30.7633 209.975 29.7526Z" fill="#94A3B8"/></g></g><path d="M284.149 32.5177L284.759 32.6965C284.719 32.8654 284.658 33.0045 284.567 33.1138C284.474 33.2231 284.373 33.3125 284.241 33.3622C284.109 33.4218 283.946 33.4516 283.742 33.4516C283.498 33.4516 283.304 33.4218 283.142 33.3523C282.989 33.2827 282.857 33.1634 282.744 32.9846C282.632 32.8157 282.571 32.5873 282.571 32.319C282.571 31.9613 282.673 31.6832 282.867 31.4844C283.06 31.2857 283.344 31.1963 283.701 31.1963C283.986 31.1963 284.2 31.2559 284.363 31.3652C284.526 31.4745 284.647 31.6434 284.719 31.8819L284.109 32.011C284.088 31.9415 284.068 31.8917 284.037 31.8619C283.996 31.8123 283.956 31.7726 283.895 31.7428C283.833 31.713 283.773 31.703 283.711 31.703C283.558 31.703 283.437 31.7626 283.355 31.8917C283.294 31.9812 283.263 32.1302 283.263 32.319C283.263 32.5575 283.304 32.7263 283.375 32.8157C283.447 32.9052 283.558 32.9548 283.691 32.9548C283.823 32.9548 283.925 32.9151 283.986 32.8455C284.068 32.7561 284.119 32.6568 284.149 32.5177Z" fill="#225E63"/><path d="M285.003 32.319C285.003 31.9613 285.105 31.6832 285.308 31.4844C285.512 31.2857 285.797 31.1864 286.163 31.1864C286.54 31.1864 286.825 31.2857 287.029 31.4745C287.232 31.6732 287.334 31.9415 287.334 32.2992C287.334 32.5574 287.293 32.7661 287.202 32.9251C287.109 33.084 286.988 33.2132 286.814 33.3026C286.652 33.392 286.438 33.4417 286.194 33.4417C285.94 33.4417 285.736 33.4019 285.563 33.3224C285.4 33.243 285.268 33.1238 285.156 32.9449C285.044 32.7661 285.003 32.5773 285.003 32.319ZM285.695 32.319C285.695 32.5376 285.736 32.6965 285.818 32.7959C285.899 32.8953 286.01 32.9449 286.163 32.9449C286.317 32.9449 286.428 32.8953 286.509 32.8059C286.591 32.7065 286.632 32.5376 286.632 32.2992C286.632 32.0905 286.591 31.9415 286.499 31.8521C286.418 31.7527 286.296 31.713 286.154 31.713C286.01 31.713 285.899 31.7626 285.818 31.862C285.736 31.9415 285.695 32.1005 285.695 32.319Z" fill="#225E63"/><path d="M287.691 31.2261H288.597L288.943 32.5575L289.288 31.2261H290.195V33.4119H289.624V31.7427L289.187 33.4119H288.678L288.24 31.7427V33.4119H287.671V31.2261H287.691Z" fill="#225E63"/><path d="M290.642 31.2261H291.792C292.047 31.2261 292.23 31.2858 292.352 31.405C292.474 31.5242 292.535 31.6831 292.535 31.9017C292.535 32.1202 292.463 32.2991 292.331 32.4183C292.199 32.5475 291.985 32.6071 291.711 32.6071H291.334V33.4218H290.642V31.2261ZM291.334 32.16H291.507C291.639 32.16 291.731 32.1402 291.792 32.0904C291.843 32.0408 291.873 31.9911 291.873 31.9216C291.873 31.852 291.853 31.7924 291.802 31.7427C291.751 31.6931 291.67 31.6732 291.537 31.6732H291.344V32.16H291.334Z" fill="#225E63"/><path d="M292.9 31.2261H293.593V32.8754H294.672V33.4119H292.9V31.2261Z" fill="#225E63"/><path d="M295.019 31.2261H295.711V33.4119H295.019V31.2261Z" fill="#225E63"/><path d="M297.583 33.0441H296.8L296.688 33.4018H295.986L296.83 31.2161H297.583L298.428 33.4018H297.706L297.583 33.0441ZM297.441 32.5772L297.197 31.7923L296.953 32.5772H297.441Z" fill="#225E63"/><path d="M298.641 31.2261H299.282L300.126 32.4382V31.2261H300.778V33.4119H300.126L299.292 32.2097V33.4119H298.641V31.2261Z" fill="#225E63"/><path d="M301.085 31.2261H303.192V31.7626H302.489V33.4119H301.798V31.7626H301.095V31.2261H301.085Z" fill="#225E63"/><path d="M275.824 34.5543L277.829 33.9383L277.177 32.5276C276.699 33.1137 276.22 33.8687 275.824 34.5543ZM275.142 28.1064L271.213 19.5621L242.451 21.1517L250.42 42.3733L265.758 37.6541C264.78 36.283 264.424 34.6536 265.554 33.8588C266.816 32.9647 268.719 33.9979 269.93 35.4584C271.101 33.5508 274.389 29.1098 275.142 28.1064Z" fill="#225E63"/><path d="M270.315 25.737C271.515 25.737 272.492 24.8428 272.492 23.7301C272.492 22.6173 271.515 21.7232 270.315 21.7232C269.113 21.7232 268.137 22.6173 268.137 23.7301C268.137 24.8328 269.113 25.737 270.315 25.737ZM268.533 26.6013H272.095V35.692H268.533V26.6013Z" fill="#FEFEFE"/><path d="M266.772 29.2539C266.803 29.2638 266.824 29.2539 266.824 29.2241V26.9192C266.824 26.8894 266.803 26.8596 266.772 26.8396C266.772 26.8396 266.304 26.5416 264.879 26.4621C264.809 26.4224 263.557 26.4125 263.221 26.4621C258.03 26.8695 257.836 30.5356 257.836 30.6945V31.5886C257.836 31.6979 257.836 35.4435 263.221 35.7713C263.75 35.8111 264.778 35.7713 264.879 35.7713C266.122 35.7713 266.976 35.4038 266.976 35.4038C267.007 35.3938 267.028 35.364 267.028 35.3342V33.1783C267.028 33.1485 267.007 33.1386 266.987 33.1584C266.987 33.1584 266.599 33.4565 264.91 33.6254C264.432 33.675 264.198 33.6552 264.025 33.6254C261.623 33.228 261.511 31.5192 261.511 31.5192C261.511 31.4894 261.501 31.4396 261.501 31.4198V30.764C261.501 30.7342 261.501 30.6846 261.511 30.6647C261.511 30.6647 261.674 28.8267 264.025 28.628H264.91C265.939 28.7571 266.772 29.2539 266.772 29.2539Z" fill="#FEFEFE"/><path d="M247.944 35.6622C247.944 35.692 247.965 35.7118 247.995 35.7118H251.465C251.496 35.7118 251.517 35.692 251.517 35.6622V33.0195C251.517 32.9896 251.537 32.9697 251.568 32.9697C251.568 32.9697 257.114 33.3572 257.114 29.7309C257.114 26.8597 253.633 26.5516 252.494 26.6013C252.473 26.6013 247.995 26.6013 247.995 26.6013C247.965 26.6013 247.944 26.6212 247.944 26.651V35.6622ZM251.455 30.9529V28.5784H252.31C252.31 28.5784 253.542 28.6281 253.643 29.4527C253.664 29.5124 253.664 29.9197 253.643 29.9395C253.48 30.9032 252.412 30.9529 252.412 30.9529H251.455Z" fill="#FEFEFE"/><path d="M270.418 40.0783C270.703 40.0783 270.928 40.0783 271.294 39.9193C272.555 39.2735 276.82 29.1099 281.318 25.9803C281.349 25.9605 281.38 25.9307 281.4 25.9008C281.431 25.8611 281.431 25.8213 281.431 25.8213C281.431 25.8213 281.431 25.6127 280.769 25.6127C276.77 25.5034 272.607 33.6999 270.418 36.9387C270.388 36.9785 270.245 36.9387 270.245 36.9387C270.245 36.9387 268.78 35.2498 267.508 34.604C267.477 34.5941 267.335 34.5444 267.182 34.5543C267.08 34.5543 266.49 34.6735 266.215 34.9517C265.889 35.2895 265.9 35.4783 265.9 35.8856C265.9 35.9154 265.92 36.0545 265.961 36.1241C266.277 36.6606 267.691 38.5681 268.861 39.6212C269.034 39.7504 269.309 40.0783 270.418 40.0783Z" fill="#2BBC5D"/><path d="M282.5 22.9106H285.828C286.489 22.9106 287.018 23 287.415 23.1689C287.823 23.3477 288.159 23.5962 288.413 23.9141C288.677 24.2419 288.871 24.6195 288.982 25.0467C289.105 25.4739 289.166 25.9309 289.166 26.4177C289.166 27.1728 289.074 27.759 288.901 28.1763C288.728 28.5935 288.484 28.9413 288.169 29.2294C287.853 29.5075 287.517 29.6963 287.161 29.7957C286.672 29.9248 286.225 29.9844 285.828 29.9844H282.5V22.9106ZM284.739 24.5102V28.375H285.288C285.756 28.375 286.092 28.3253 286.286 28.2259C286.479 28.1265 286.641 27.9477 286.754 27.6994C286.866 27.451 286.927 27.0337 286.927 26.4675C286.927 25.7123 286.804 25.2056 286.55 24.9275C286.296 24.6493 285.889 24.5102 285.298 24.5102H284.739Z" fill="#225E63"/><path d="M289.787 27.6494L291.925 27.5203C291.975 27.8581 292.067 28.1165 292.209 28.2952C292.443 28.5834 292.769 28.7225 293.197 28.7225C293.513 28.7225 293.767 28.6529 293.94 28.5039C294.113 28.3548 294.204 28.186 294.204 27.9973C294.204 27.8184 294.123 27.6494 293.96 27.5004C293.797 27.3514 293.41 27.2223 292.81 27.0931C291.822 26.8746 291.131 26.5864 290.703 26.2288C290.275 25.8711 290.071 25.4141 290.071 24.8577C290.071 24.4902 290.184 24.1523 290.397 23.8244C290.611 23.4966 290.937 23.2483 291.375 23.0594C291.812 22.8706 292.403 22.7812 293.156 22.7812C294.082 22.7812 294.794 22.9502 295.272 23.2879C295.761 23.6258 296.046 24.1623 296.138 24.8975L294.021 25.0167C293.96 24.6987 293.848 24.4702 293.665 24.3212C293.482 24.1722 293.237 24.1027 292.921 24.1027C292.657 24.1027 292.464 24.1523 292.331 24.2616C292.199 24.3709 292.138 24.5 292.138 24.659C292.138 24.7683 292.189 24.8775 292.301 24.967C292.403 25.0564 292.657 25.1458 293.054 25.2253C294.031 25.434 294.734 25.6425 295.161 25.8512C295.588 26.0598 295.893 26.3281 296.087 26.6361C296.281 26.9441 296.372 27.3017 296.372 27.6892C296.372 28.1463 296.24 28.5635 295.985 28.9411C295.73 29.3285 295.365 29.6167 294.907 29.8153C294.449 30.014 293.858 30.1134 293.156 30.1134C291.925 30.1134 291.069 29.8849 290.591 29.4179C290.123 28.951 289.858 28.3648 289.787 27.6494Z" fill="#225E63"/><path d="M296.94 27.6494L299.077 27.5203C299.128 27.858 299.219 28.1163 299.362 28.2951C299.596 28.5832 299.922 28.7224 300.349 28.7224C300.665 28.7224 300.919 28.6528 301.092 28.5038C301.265 28.3547 301.356 28.1859 301.356 27.9971C301.356 27.8182 301.275 27.6494 301.112 27.5003C300.95 27.3513 300.562 27.2222 299.962 27.093C298.975 26.8744 298.283 26.5863 297.856 26.2286C297.438 25.8709 297.225 25.414 297.225 24.8576C297.225 24.49 297.336 24.1522 297.55 23.8244C297.764 23.4965 298.089 23.2481 298.527 23.0594C298.965 22.8705 299.555 22.7811 300.308 22.7811C301.234 22.7811 301.947 22.9501 302.426 23.2878C302.913 23.6257 303.199 24.1621 303.29 24.8973L301.174 25.0165C301.112 24.6986 301.001 24.4701 300.817 24.3211C300.634 24.1721 300.39 24.1025 300.075 24.1025C299.809 24.1025 299.617 24.1522 299.484 24.2615C299.351 24.3707 299.291 24.4999 299.291 24.6589C299.291 24.7682 299.341 24.8775 299.454 24.9669C299.555 25.0563 299.809 25.1457 300.207 25.2252C301.184 25.4338 301.886 25.6424 302.313 25.8511C302.741 26.0597 303.047 26.328 303.239 26.636C303.433 26.944 303.525 27.3016 303.525 27.6891C303.525 28.1461 303.392 28.5634 303.138 28.9409C302.884 29.3284 302.517 29.6165 302.059 29.8153C301.601 30.0139 301.011 30.1133 300.308 30.1133C299.077 30.1133 298.221 29.8847 297.743 29.4178C297.266 28.9509 297 28.3647 296.94 27.6494Z" fill="#225E63"/></g><defs><clipPath id="clip0_1_2"><rect width="313" height="60" fill="white"/></clipPath></defs></svg>
