<svg width="577" height="110" viewBox="0 0 577 110" fill="none" xmlns="http://www.w3.org/2000/svg"><g clip-path="url(#clip0_1_55)"><path d="M577 0H0V110H577V0Z" stroke="#94A3B8"/><mask id="mask0_1_55" style="mask-type:luminance" maskUnits="userSpaceOnUse" x="23" y="28" width="66" height="50"><path d="M88.6926 28.4821H23.9171V77.5893H88.6926V28.4821Z" fill="white"/></mask><g mask="url(#mask0_1_55)"><path d="M35.657 77.4817V74.2227C35.657 72.9761 34.8791 72.1597 33.5436 72.1597C32.8759 72.1597 32.1499 72.3749 31.6507 73.0836C31.2617 72.4887 30.7042 72.1597 29.8679 72.1597C29.3104 72.1597 28.7528 72.3242 28.3121 72.9191V72.2673H27.1452V77.4817H28.3121V74.6024C28.3121 73.6785 28.8112 73.2418 29.5891 73.2418C30.367 73.2418 30.7561 73.7291 30.7561 74.6024V77.4817H31.9229V74.6024C31.9229 73.6785 32.4804 73.2418 33.2 73.2418C33.9779 73.2418 34.367 73.7291 34.367 74.6024V77.4817H35.657ZM52.9659 72.2673H51.073V70.6915H49.906V72.2673H48.8494V73.2988H49.906V75.6909C49.906 76.8869 50.4052 77.5893 51.7407 77.5893C52.2398 77.5893 52.7974 77.4248 53.1863 77.2096L52.8492 76.2287C52.5121 76.4439 52.1231 76.5009 51.8444 76.5009C51.2868 76.5009 51.0665 76.1718 51.0665 75.6339V73.2988H52.9594V72.2673H52.9659ZM62.8715 72.1533C62.2038 72.1533 61.7564 72.4824 61.4777 72.9127V72.261H60.3109V77.4755H61.4777V74.5391C61.4777 73.6721 61.8667 73.1786 62.5927 73.1786C62.8132 73.1786 63.0919 73.2355 63.3188 73.2861L63.656 72.1977C63.4226 72.1533 63.0919 72.1533 62.8715 72.1533ZM47.9029 72.6976C47.3454 72.3179 46.5674 72.1533 45.7312 72.1533C44.3957 72.1533 43.5076 72.8052 43.5076 73.8367C43.5076 74.7037 44.1753 75.1973 45.3422 75.3555L45.8997 75.4124C46.5091 75.52 46.8462 75.6845 46.8462 75.9567C46.8462 76.3364 46.3989 76.6084 45.621 76.6084C44.8431 76.6084 44.2272 76.3364 43.8382 76.0642L43.2807 76.9312C43.8901 77.3678 44.7264 77.583 45.5626 77.583C47.1185 77.583 48.0131 76.8742 48.0131 75.8997C48.0131 74.9758 47.287 74.4885 46.1784 74.324L45.621 74.267C45.1218 74.21 44.7328 74.1025 44.7328 73.7798C44.7328 73.4001 45.1218 73.1849 45.7377 73.1849C46.4053 73.1849 47.0731 73.457 47.4102 73.6215L47.9029 72.6976ZM78.9486 72.1533C78.281 72.1533 77.8337 72.4824 77.5549 72.9127V72.261H76.388V77.4755H77.5549V74.5391C77.5549 73.6721 77.9438 73.1786 78.6699 73.1786C78.8903 73.1786 79.1691 73.2355 79.396 73.2861L79.7331 72.2103C79.5062 72.1533 79.1756 72.1533 78.9486 72.1533ZM64.0384 74.8746C64.0384 76.4502 65.1535 77.5893 66.8779 77.5893C67.6558 77.5893 68.2133 77.4248 68.7708 76.9945L68.2133 76.0706C67.766 76.3996 67.3251 76.5578 66.8195 76.5578C65.873 76.5578 65.2053 75.906 65.2053 74.8746C65.2053 73.8937 65.873 73.2418 66.8195 73.1913C67.3187 73.1913 67.766 73.3558 68.2133 73.6785L68.7708 72.7546C68.2133 72.3179 67.6558 72.1597 66.8779 72.1597C65.1535 72.1534 64.0384 73.2988 64.0384 74.8746ZM74.8321 74.8746V72.2673H73.6653V72.9191C73.2763 72.4319 72.7187 72.1597 71.9928 72.1597C70.4888 72.1597 69.3218 73.2988 69.3218 74.8746C69.3218 76.4502 70.4888 77.5893 71.9928 77.5893C72.7707 77.5893 73.3281 77.3172 73.6653 76.8299V77.4817H74.8321V74.8746ZM70.5471 74.8746C70.5471 73.9506 71.1565 73.1913 72.1613 73.1913C73.1078 73.1913 73.7755 73.9 73.7755 74.8746C73.7755 75.7985 73.1078 76.5578 72.1613 76.5578C71.1629 76.5009 70.5471 75.7921 70.5471 74.8746ZM56.5833 72.1533C55.0274 72.1533 53.9123 73.2418 53.9123 74.8682C53.9123 76.5009 55.0274 77.583 56.6416 77.583C57.4196 77.583 58.1975 77.3678 58.8133 76.8743L58.2558 76.0579C57.8085 76.387 57.251 76.6021 56.7 76.6021C55.9739 76.6021 55.2543 76.273 55.0858 75.3555H59.0338C59.0338 75.1909 59.0338 75.0834 59.0338 74.9188C59.0856 73.2418 58.0808 72.1533 56.5833 72.1533ZM56.5833 73.1343C57.3094 73.1343 57.8085 73.5709 57.9187 74.3809H55.1376C55.2478 73.6785 55.747 73.1343 56.5833 73.1343ZM85.5741 74.8746V70.2043H84.4071V72.9191C84.0182 72.4319 83.4607 72.1597 82.7346 72.1597C81.2306 72.1597 80.0637 73.2988 80.0637 74.8746C80.0637 76.4502 81.2306 77.5893 82.7346 77.5893C83.5125 77.5893 84.0701 77.3172 84.4071 76.8299V77.4817H85.5741V74.8746ZM81.2889 74.8746C81.2889 73.9506 81.8983 73.1913 82.9031 73.1913C83.8497 73.1913 84.5174 73.9 84.5174 74.8746C84.5174 75.7985 83.8497 76.5578 82.9031 76.5578C81.8983 76.5009 81.2889 75.7921 81.2889 74.8746ZM42.224 74.8746V72.2673H41.0571V72.9191C40.6681 72.4319 40.1107 72.1597 39.3846 72.1597C37.8806 72.1597 36.7136 73.2988 36.7136 74.8746C36.7136 76.4502 37.8806 77.5893 39.3846 77.5893C40.1625 77.5893 40.7201 77.3172 41.0571 76.8299V77.4817H42.224V74.8746ZM37.8871 74.8746C37.8871 73.9506 38.4965 73.1913 39.5013 73.1913C40.4477 73.1913 41.1155 73.9 41.1155 74.8746C41.1155 75.7985 40.4477 76.5578 39.5013 76.5578C38.4965 76.5009 37.8871 75.7921 37.8871 74.8746Z" fill="black"/><path d="M65.0433 32.6651H47.514V63.4077H65.0433V32.6651Z" fill="#FF5A00"/><path d="M48.6812 48.0364C48.6812 41.7905 51.6891 36.2469 56.3048 32.6651C52.9079 30.0579 48.6228 28.4821 43.9488 28.4821C32.8762 28.4821 23.9171 37.2277 23.9171 48.0364C23.9171 58.845 32.8762 67.5907 43.9488 67.5907C48.6228 67.5907 52.9079 66.0149 56.3048 63.4077C51.6827 59.8765 48.6812 54.2824 48.6812 48.0364Z" fill="#EB001B"/><path d="M88.6926 48.0364C88.6926 58.845 79.7334 67.5907 68.6609 67.5907C63.9869 67.5907 59.7018 66.0149 56.3048 63.4077C60.9789 59.8196 63.9285 54.2824 63.9285 48.0364C63.9285 41.7905 60.9205 36.2469 56.3048 32.6651C59.6953 30.0579 63.9804 28.4821 68.6544 28.4821C79.7334 28.4821 88.6926 37.2847 88.6926 48.0364Z" fill="#F79E1B"/></g><mask id="mask1_1_55" style="mask-type:luminance" maskUnits="userSpaceOnUse" x="110" y="35" width="108" height="36"><path d="M217.247 35.3571H110.617V70.7143H217.247V35.3571Z" fill="white"/></mask><g mask="url(#mask1_1_55)"><path d="M180.053 35.4116C172.489 35.4116 165.731 39.4153 165.731 46.8125C165.731 55.2955 177.718 55.8815 177.718 60.1432C177.718 61.9376 175.704 63.5439 172.265 63.5439C167.384 63.5439 163.737 61.2994 163.737 61.2994L162.176 68.7639C162.176 68.7639 166.378 70.6598 171.957 70.6598C180.226 70.6598 186.734 66.4595 186.734 58.9359C186.734 49.9719 174.696 49.4035 174.696 45.4479C174.696 44.0422 176.349 42.502 179.778 42.502C183.648 42.502 186.805 44.1344 186.805 44.1344L188.332 36.9248C188.332 36.9248 184.897 35.4116 180.053 35.4116ZM110.853 35.9557L110.671 37.0439C110.671 37.0439 113.853 37.6387 116.719 38.825C120.409 40.1855 120.671 40.9775 121.293 43.4372L128.065 70.0987H137.143L151.128 35.9557H142.072L133.085 59.1697L129.418 39.4925C129.082 37.2404 127.378 35.9557 125.293 35.9557H110.853ZM154.771 35.9557L147.665 70.0987H156.302L163.383 35.9557H154.771ZM202.942 35.9557C200.859 35.9557 199.756 37.0945 198.947 39.0844L186.292 70.0987H195.35L197.102 64.9297H208.137L209.202 70.0987H217.194L210.223 35.9557H202.942ZM204.12 45.18L206.804 57.9922H199.612L204.12 45.18Z" fill="#1434CB"/></g><path d="M423.532 32.4107H239.171V74.6429H423.532V32.4107Z" fill="#FC3131"/><mask id="mask2_1_55" style="mask-type:luminance" maskUnits="userSpaceOnUse" x="250" y="43" width="164" height="21"><path d="M413.566 43.2143H250.133V63.8393H413.566V43.2143Z" fill="white"/></mask><g mask="url(#mask2_1_55)"><mask id="mask3_1_55" style="mask-type:luminance" maskUnits="userSpaceOnUse" x="250" y="43" width="164" height="21"><path d="M413.566 43.2143H250.133V63.8393H413.566V43.2143Z" fill="white"/></mask><g mask="url(#mask3_1_55)"><path fill-rule="evenodd" clip-rule="evenodd" d="M253.801 46.5963L250.133 47.9253V63.8385H253.767L253.801 57.9184C254.675 58.9714 255.876 59.8688 257.83 59.8688C260.881 59.8688 263.71 57.487 263.71 53.1377C263.71 48.7365 260.847 46.3547 257.83 46.3547C255.927 46.3547 254.693 47.2522 253.801 48.4603V46.5963ZM256.887 49.4959C258.602 49.4959 260.042 50.9284 260.042 53.0859C260.042 55.3123 258.602 56.7276 256.887 56.7276C255.173 56.7276 253.75 55.295 253.75 53.1377C253.75 50.9284 255.173 49.4959 256.887 49.4959Z" fill="white"/><path d="M280.081 46.5971H283.749V48.72C284.504 46.925 285.704 46.4763 287.88 46.5798V49.7556H287.692C285.258 49.7556 283.766 51.7058 283.766 54.8125V59.6279H280.098V46.5971H280.081Z" fill="white"/><path d="M291.257 55.9172V49.7556H289.715V46.5972H291.257V44.5605L294.926 43.2143V46.5972H297.959V49.7556H294.926V55.3131C294.926 56.1588 295.285 56.5731 296.109 56.5731C296.777 56.5731 297.394 56.4004 297.926 56.1071V59.0757C297.154 59.5417 296.263 59.8351 295.028 59.8351C292.766 59.8351 291.257 58.9376 291.257 55.9172Z" fill="white"/><path d="M299.536 46.5963H303.205V48.4431C304.044 47.3558 305.158 46.3547 307.01 46.3547C308.707 46.3547 309.976 47.1141 310.644 48.4258C311.775 47.0969 313.13 46.3547 314.896 46.3547C317.621 46.3547 319.266 48.0117 319.266 51.1356V59.6099H315.598V52.3437C315.598 50.6005 314.827 49.703 313.455 49.703C312.084 49.703 311.244 50.6005 311.244 52.3437V59.6099H307.576V52.3437C307.576 50.6005 306.805 49.703 305.433 49.703C304.061 49.703 303.221 50.6005 303.221 52.3437V59.6099H299.553V46.5963H299.536Z" fill="white"/><path d="M335.277 46.598H338.946V48.4448C339.786 47.3575 340.883 46.3564 342.734 46.3564C345.511 46.3564 347.123 48.2032 347.123 51.189V59.6116H343.455V52.3454C343.455 50.6022 342.631 49.7047 341.243 49.7047C339.837 49.7047 338.946 50.6022 338.946 52.3454V59.6116H335.277V46.598Z" fill="white"/><path fill-rule="evenodd" clip-rule="evenodd" d="M354.94 46.3383C351.169 46.3383 348.546 49.4104 348.546 53.1213C348.546 57.1599 351.426 59.9041 355.283 59.8868C357.015 59.8868 358.42 59.3863 359.517 58.5062C359.209 57.6087 358.471 55.5893 358.471 55.5893C357.46 56.5213 356.569 56.9183 355.334 56.9183C353.706 56.9183 352.54 56.038 352.18 54.3639H361.18C361.214 54.036 361.231 53.6908 361.231 53.3973C361.231 49.7211 359.26 46.3383 354.94 46.3383ZM354.94 49.3242C356.482 49.3242 357.443 50.4288 357.665 52.0857H352.145C352.437 50.4115 353.414 49.3242 354.94 49.3242Z" fill="white"/><path d="M366.87 53.1209C366.87 49.41 369.699 46.3379 373.641 46.3379C375.441 46.3379 376.727 46.8384 377.773 47.6669C377.499 48.3918 376.641 50.8081 376.641 50.8081C375.852 50.0487 375.081 49.5137 373.624 49.5137C371.79 49.5137 370.487 51.1361 370.487 53.1036C370.487 55.0885 371.772 56.6936 373.761 56.6936C374.995 56.6936 375.835 56.1585 376.727 55.3128C376.727 55.3128 377.67 57.9535 377.858 58.4713C376.813 59.3342 375.509 59.8866 373.59 59.8866C369.716 59.9038 366.87 56.8834 366.87 53.1209Z" fill="#94A3B8"/><path d="M393.853 46.598H397.521V48.4448C398.361 47.3575 399.475 46.3564 401.327 46.3564C403.024 46.3564 404.293 47.1157 404.96 48.4275C406.092 47.0986 407.447 46.3564 409.213 46.3564C411.937 46.3564 413.583 48.0133 413.583 51.1372V59.6116H409.915V52.3454C409.915 50.6022 409.144 49.7047 407.772 49.7047C406.401 49.7047 405.561 50.6022 405.561 52.3454V59.6116H401.893V52.3454C401.893 50.6022 401.122 49.7047 399.749 49.7047C398.378 49.7047 397.538 50.6022 397.538 52.3454V59.6116H393.87V46.598H393.853Z" fill="#94A3B8"/><path d="M365.979 57.8331C365.979 58.9722 365.122 59.8869 364.042 59.8869C362.963 59.8869 362.105 58.9722 362.105 57.8331C362.105 56.6939 362.963 55.7791 364.042 55.7791C365.122 55.7791 365.979 56.6939 365.979 57.8331Z" fill="#94A3B8"/><path fill-rule="evenodd" clip-rule="evenodd" d="M264.943 53.0858C264.943 56.8657 267.994 59.9378 271.748 59.9378C275.52 59.9378 278.553 56.8657 278.553 53.0858C278.553 49.306 275.502 46.2339 271.748 46.2339C267.994 46.2339 264.943 49.306 264.943 53.0858ZM268.508 53.0858C268.508 51.2908 269.965 49.8238 271.748 49.8238C273.548 49.8238 274.988 51.2908 274.988 53.0858C274.988 54.8809 273.531 56.3479 271.748 56.3479C269.965 56.3479 268.508 54.8809 268.508 53.0858Z" fill="white"/><path fill-rule="evenodd" clip-rule="evenodd" d="M320.501 53.0858C320.501 56.8657 323.553 59.9378 327.306 59.9378C331.06 59.9378 334.112 56.8657 334.112 53.0858C334.112 49.306 331.06 46.2339 327.306 46.2339C323.553 46.2339 320.501 49.306 320.501 53.0858ZM324.067 53.0858C324.067 51.2908 325.524 49.8238 327.306 49.8238C329.089 49.8238 330.546 51.2908 330.546 53.0858C330.546 54.8809 329.089 56.3479 327.306 56.3479C325.524 56.3479 324.067 54.8809 324.067 53.0858Z" fill="white"/><path fill-rule="evenodd" clip-rule="evenodd" d="M378.561 53.0875C378.561 56.8673 381.612 59.9395 385.366 59.9395C389.12 59.9395 392.172 56.8673 392.172 53.0875C392.172 49.3077 389.12 46.2356 385.366 46.2356C381.612 46.2356 378.561 49.3077 378.561 53.0875ZM382.126 53.0875C382.126 51.2925 383.583 49.8255 385.366 49.8255C387.149 49.8255 388.606 51.2925 388.606 53.0875C388.606 54.8825 387.149 56.3496 385.366 56.3496C383.583 56.3496 382.126 54.8825 382.126 53.0875Z" fill="#94A3B8"/></g></g><path d="M517.336 57.8315L518.433 58.1583C518.359 58.4668 518.25 58.7208 518.085 58.9205C517.921 59.1202 517.738 59.2835 517.5 59.3743C517.263 59.4832 516.971 59.5376 516.605 59.5376C516.167 59.5376 515.819 59.4832 515.527 59.3561C515.253 59.2291 515.016 59.0113 514.815 58.6846C514.613 58.376 514.504 57.9586 514.504 57.4686C514.504 56.8152 514.686 56.307 515.034 55.944C515.381 55.581 515.893 55.4177 516.533 55.4177C517.044 55.4177 517.427 55.5266 517.72 55.7262C518.012 55.9259 518.232 56.2345 518.359 56.67L517.263 56.9059C517.226 56.7789 517.19 56.6881 517.135 56.6337C517.062 56.5429 516.989 56.4704 516.879 56.416C516.77 56.3614 516.66 56.3433 516.551 56.3433C516.276 56.3433 516.057 56.4522 515.911 56.6881C515.801 56.8515 515.746 57.1238 515.746 57.4686C515.746 57.9042 515.819 58.2127 515.948 58.376C516.075 58.5393 516.276 58.6301 516.514 58.6301C516.752 58.6301 516.934 58.5575 517.044 58.4305C517.19 58.2672 517.281 58.0857 517.336 57.8315Z" fill="#225E63"/><path d="M518.87 57.4686C518.87 56.8153 519.052 56.307 519.418 55.944C519.783 55.5811 520.295 55.3996 520.952 55.3996C521.629 55.3996 522.14 55.5811 522.506 55.926C522.872 56.289 523.054 56.779 523.054 57.4323C523.054 57.9042 522.981 58.2854 522.817 58.5757C522.652 58.8661 522.433 59.1021 522.122 59.2654C521.83 59.4288 521.447 59.5195 521.007 59.5195C520.551 59.5195 520.185 59.4469 519.875 59.3017C519.582 59.1565 519.345 58.9387 519.144 58.612C518.942 58.2854 518.87 57.9405 518.87 57.4686ZM520.112 57.4686C520.112 57.868 520.185 58.1583 520.331 58.3398C520.478 58.5213 520.678 58.612 520.952 58.612C521.227 58.612 521.428 58.5213 521.574 58.3579C521.721 58.1764 521.793 57.868 521.793 57.4323C521.793 57.0512 521.721 56.779 521.556 56.6156C521.41 56.4341 521.19 56.3615 520.934 56.3615C520.678 56.3615 520.478 56.4523 520.331 56.6338C520.185 56.779 520.112 57.0694 520.112 57.4686Z" fill="#225E63"/><path d="M523.696 55.4721H525.322L525.944 57.9041L526.565 55.4721H528.191V59.465H527.168V56.4159L526.382 59.465H525.469L524.683 56.4159V59.465H523.66V55.4721H523.696Z" fill="#225E63"/><path d="M528.994 55.4721H531.059C531.517 55.4721 531.845 55.581 532.065 55.7988C532.284 56.0166 532.394 56.307 532.394 56.7063C532.394 57.1056 532.266 57.4323 532.028 57.65C531.791 57.886 531.407 57.9949 530.914 57.9949H530.237V59.4831H528.994V55.4721ZM530.237 57.1782H530.548C530.785 57.1782 530.95 57.1419 531.059 57.0511C531.151 56.9604 531.206 56.8696 531.206 56.7426C531.206 56.6155 531.169 56.5066 531.078 56.4159C530.986 56.3251 530.84 56.2889 530.603 56.2889H530.255V57.1782H530.237Z" fill="#225E63"/><path d="M533.05 55.4721H534.293V58.4849H536.23V59.465H533.05V55.4721Z" fill="#225E63"/><path d="M536.853 55.4721H538.096V59.465H536.853V55.4721Z" fill="#225E63"/><path d="M541.457 58.7932H540.05L539.849 59.4467H538.588L540.105 55.4538H541.457L542.974 59.4467H541.676L541.457 58.7932ZM541.201 57.9402L540.763 56.5064L540.324 57.9402H541.201Z" fill="#225E63"/><path d="M543.356 55.4721H544.508L546.024 57.6864V55.4721H547.193V59.465H546.024L544.526 57.2689V59.465H543.356V55.4721Z" fill="#225E63"/><path d="M547.744 55.4721H551.526V56.4522H550.266V59.465H549.023V56.4522H547.762V55.4721H547.744Z" fill="#225E63"/><path d="M502.388 61.552L505.988 60.4267L504.818 57.8495C503.959 58.9203 503.101 60.2996 502.388 61.552ZM501.164 49.773L494.109 34.1646L442.466 37.0685L456.775 75.8355L484.314 67.2145C482.56 64.71 481.921 61.7335 483.95 60.2815C486.216 58.6481 489.633 60.5356 491.807 63.2035C493.909 59.7189 499.812 51.6061 501.164 49.773Z" fill="#225E63"/><path d="M492.497 45.4445C494.652 45.4445 496.407 43.8111 496.407 41.7784C496.407 39.7456 494.652 38.1122 492.497 38.1122C490.34 38.1122 488.585 39.7456 488.585 41.7784C488.585 43.793 490.34 45.4445 492.497 45.4445ZM489.298 47.0235H495.695V63.6302H489.298V47.0235Z" fill="#FEFEFE"/><path d="M486.137 51.8693C486.192 51.8875 486.229 51.8693 486.229 51.8148V47.6042C486.229 47.5498 486.192 47.4953 486.137 47.459C486.137 47.459 485.297 46.9145 482.738 46.7693C482.61 46.6968 480.362 46.6786 479.759 46.7693C470.439 47.5134 470.093 54.2106 470.093 54.501V56.1344C470.093 56.334 470.093 63.1763 479.759 63.7752C480.71 63.8479 482.555 63.7752 482.738 63.7752C484.968 63.7752 486.503 63.1038 486.503 63.1038C486.557 63.0856 486.594 63.0312 486.594 62.9767V59.0383C486.594 58.9839 486.558 58.9657 486.521 59.002C486.521 59.002 485.826 59.5464 482.793 59.855C481.935 59.9458 481.514 59.9094 481.203 59.855C476.89 59.129 476.69 56.0074 476.69 56.0074C476.69 55.9529 476.671 55.8621 476.671 55.8259V54.628C476.671 54.5736 476.671 54.4828 476.69 54.4466C476.69 54.4466 476.982 51.0889 481.203 50.7259H482.793C484.639 50.9618 486.137 51.8693 486.137 51.8693Z" fill="#FEFEFE"/><path d="M452.329 63.5757C452.329 63.6301 452.366 63.6664 452.421 63.6664H458.652C458.707 63.6664 458.744 63.6301 458.744 63.5757V58.748C458.744 58.6935 458.781 58.6572 458.836 58.6572C458.836 58.6572 468.795 59.365 468.795 52.7405C468.795 47.4953 462.545 46.9327 460.498 47.0234C460.462 47.0234 452.421 47.0234 452.421 47.0234C452.366 47.0234 452.329 47.0598 452.329 47.1142V63.5757ZM458.634 54.9729V50.6352H460.169C460.169 50.6352 462.38 50.7259 462.564 52.2323C462.6 52.3412 462.6 53.0853 462.564 53.1217C462.271 54.8821 460.352 54.9729 460.352 54.9729H458.634Z" fill="#FEFEFE"/><path d="M492.683 71.6431C493.195 71.6431 493.597 71.6431 494.255 71.3527C496.521 70.1729 504.177 51.6062 512.255 45.8892C512.31 45.8528 512.365 45.7984 512.401 45.7439C512.456 45.6713 512.456 45.5987 512.456 45.5987C512.456 45.5987 512.456 45.2176 511.269 45.2176C504.087 45.018 496.613 59.9912 492.683 65.9079C492.628 65.9805 492.372 65.9079 492.372 65.9079C492.372 65.9079 489.741 62.8225 487.456 61.6427C487.402 61.6247 487.146 61.5339 486.872 61.552C486.689 61.552 485.63 61.7698 485.136 62.278C484.551 62.8951 484.569 63.2399 484.569 63.9841C484.569 64.0385 484.606 64.2925 484.679 64.4196C485.246 65.3997 487.786 68.8844 489.887 70.8082C490.198 71.0441 490.691 71.6431 492.683 71.6431Z" fill="#2BBC5D"/><path d="M514.374 40.2815H520.35C521.538 40.2815 522.488 40.4448 523.2 40.7534C523.932 41.0801 524.535 41.5338 524.991 42.1146C525.467 42.7135 525.814 43.4032 526.015 44.1837C526.234 44.9641 526.344 45.7989 526.344 46.6882C526.344 48.0676 526.179 49.1384 525.869 49.9007C525.558 50.663 525.12 51.2982 524.553 51.8245C523.987 52.3327 523.384 52.6775 522.744 52.859C521.867 53.0949 521.063 53.2039 520.35 53.2039H514.374V40.2815ZM518.395 43.2036V50.2637H519.382C520.222 50.2637 520.825 50.173 521.173 49.9915C521.519 49.81 521.812 49.4832 522.013 49.0296C522.214 48.5758 522.324 47.8135 522.324 46.779C522.324 45.3997 522.104 44.474 521.648 43.9658C521.19 43.4577 520.46 43.2036 519.4 43.2036H518.395Z" fill="#225E63"/><path d="M527.46 48.9384L531.297 48.7025C531.389 49.3196 531.553 49.7914 531.809 50.1182C532.229 50.6445 532.814 50.8986 533.582 50.8986C534.149 50.8986 534.605 50.7715 534.916 50.4992C535.227 50.227 535.391 49.9185 535.391 49.5737C535.391 49.2469 535.245 48.9384 534.953 48.6662C534.66 48.3939 533.965 48.158 532.887 47.9221C531.115 47.5227 529.872 46.9964 529.104 46.343C528.337 45.6897 527.972 44.8548 527.972 43.8384C527.972 43.1669 528.172 42.5499 528.556 41.9509C528.94 41.3519 529.525 40.8982 530.311 40.5534C531.096 40.2085 532.156 40.0452 533.509 40.0452C535.172 40.0452 536.451 40.3538 537.31 40.9709C538.187 41.588 538.699 42.5679 538.863 43.911L535.062 44.1289C534.953 43.548 534.751 43.1306 534.423 42.8584C534.094 42.5861 533.655 42.4591 533.088 42.4591C532.613 42.4591 532.266 42.5499 532.029 42.7494C531.791 42.9491 531.681 43.185 531.681 43.4754C531.681 43.6751 531.773 43.8748 531.974 44.0381C532.156 44.2014 532.613 44.3648 533.326 44.5099C535.08 44.8911 536.341 45.2723 537.108 45.6533C537.877 46.0345 538.425 46.5245 538.771 47.0872C539.119 47.6498 539.284 48.3032 539.284 49.011C539.284 49.8459 539.046 50.6081 538.589 51.2978C538.132 52.0056 537.474 52.532 536.652 52.895C535.83 53.258 534.769 53.4395 533.509 53.4395C531.297 53.4395 529.763 53.022 528.904 52.169C528.063 51.316 527.587 50.2452 527.46 48.9384Z" fill="#225E63"/><path d="M540.303 48.938L544.141 48.7021C544.232 49.3192 544.396 49.7911 544.652 50.1178C545.073 50.6441 545.658 50.8982 546.425 50.8982C546.991 50.8982 547.448 50.7711 547.759 50.4988C548.069 50.2267 548.234 49.9181 548.234 49.5733C548.234 49.2466 548.088 48.938 547.795 48.6658C547.503 48.3935 546.809 48.1576 545.73 47.9217C543.958 47.5224 542.715 46.996 541.947 46.3427C541.198 45.6893 540.814 44.8545 540.814 43.838C540.814 43.1666 541.016 42.5495 541.399 41.9506C541.783 41.3516 542.368 40.8979 543.153 40.5531C543.94 40.2082 545 40.0448 546.352 40.0448C548.014 40.0448 549.294 40.3534 550.153 40.9705C551.03 41.5876 551.541 42.5676 551.707 43.9106L547.905 44.1285C547.795 43.5477 547.595 43.1302 547.265 42.858C546.936 42.5858 546.498 42.4587 545.932 42.4587C545.456 42.4587 545.11 42.5495 544.871 42.7491C544.634 42.9487 544.525 43.1847 544.525 43.475C544.525 43.6747 544.615 43.8744 544.817 44.0377C545 44.201 545.456 44.3644 546.169 44.5096C547.924 44.8907 549.184 45.2719 549.952 45.653C550.719 46.0341 551.267 46.5242 551.615 47.0868C551.962 47.6494 552.126 48.3029 552.126 49.0106C552.126 49.8455 551.889 50.6078 551.432 51.2974C550.975 52.0052 550.318 52.5316 549.495 52.8946C548.672 53.2576 547.613 53.4391 546.352 53.4391C544.141 53.4391 542.605 53.0217 541.746 52.1686C540.888 51.3156 540.413 50.2448 540.303 48.938Z" fill="#225E63"/></g><defs><clipPath id="clip0_1_55"><rect width="577" height="110" fill="white"/></clipPath></defs></svg>
